 <svg width="16" height="14" viewBox="0 0 16 14" fill="none" xmlns="http://www.w3.org/2000/svg">
                        <path fill-rule="evenodd" clip-rule="evenodd" d="M2.61875 6.3H5.15375C5.2445 6.3 5.39375 6.3 5.53025 6.3112C5.699 6.3252 5.987 6.3644 6.2915 6.5233C6.59332 6.68102 6.84251 6.9136 7.0115 7.1953C7.181 7.4788 7.223 7.7476 7.238 7.9051C7.25075 8.0332 7.25 8.1718 7.25 8.2565V12.0435C7.25 12.1282 7.25 12.2675 7.238 12.3949C7.223 12.5524 7.18175 12.8212 7.01075 13.1054C6.84176 13.3871 6.59257 13.6197 6.29075 13.7774C6.05631 13.8977 5.79701 13.9698 5.53025 13.9888C5.393 14 5.2445 14 5.15375 14H2.59625C2.50625 14 2.35625 14 2.21975 13.9888C1.95294 13.9696 1.69363 13.8972 1.45925 13.7767C1.15743 13.619 0.908241 13.3864 0.73925 13.1047C0.610097 12.8859 0.532611 12.6439 0.512 12.3949C0.5 12.2668 0.5 12.1282 0.5 12.0435V8.2565C0.5 8.1725 0.5 8.0325 0.512 7.9051C0.527 7.7476 0.569 7.4788 0.73925 7.1953C0.908241 6.9136 1.15743 6.68102 1.45925 6.5233C1.69363 6.40276 1.95294 6.33044 2.21975 6.3112C2.357 6.3 2.5055 6.3 2.59625 6.3H2.61875ZM2.048 7.8792C2 7.959 2 8.064 2 8.2782V12.0232C2 12.2353 2 12.3417 2.048 12.4208C2.0818 12.4771 2.13164 12.5237 2.192 12.5552C2.2775 12.6 2.39075 12.6 2.61875 12.6H5.13125C5.35925 12.6 5.47325 12.6 5.55875 12.5552C5.61884 12.5236 5.66841 12.477 5.702 12.4208C5.75 12.3417 5.75 12.236 5.75 12.0225V8.2775C5.75 8.0647 5.75 7.959 5.702 7.8785C5.66809 7.82242 5.61826 7.77615 5.558 7.7448C5.47325 7.7 5.36 7.7 5.13125 7.7H2.61875C2.39075 7.7 2.2775 7.7 2.19125 7.7448C2.13116 7.77645 2.08159 7.82295 2.048 7.8792ZM2.61875 0H5.15375C5.2445 0 5.39375 2.21655e-08 5.53025 0.0112C5.699 0.0252 5.987 0.0644 6.2915 0.2233C6.59332 0.381025 6.84251 0.613602 7.0115 0.8953C7.181 1.1788 7.223 1.4476 7.238 1.6051C7.25075 1.7332 7.25 1.8718 7.25 1.9565V3.6435C7.25 3.7282 7.25 3.8675 7.238 3.9949C7.223 4.1524 7.18175 4.4212 7.01075 4.7054C6.84176 4.9871 6.59257 5.21968 6.29075 5.3774C6.05631 5.4977 5.79701 5.56978 5.53025 5.5888C5.393 5.6007 5.2445 5.6 5.15375 5.6H2.59625C2.50625 5.6 2.35625 5.6 2.21975 5.5888C1.95294 5.56956 1.69363 5.49724 1.45925 5.3767C1.15743 5.21898 0.908241 4.9864 0.73925 4.7047C0.610097 4.48595 0.532611 4.24392 0.512 3.9949C0.5 3.8668 0.5 3.7282 0.5 3.6435V1.9565C0.5 1.8725 0.5 1.7325 0.512 1.6051C0.527 1.4476 0.569 1.1788 0.73925 0.8953C0.908241 0.613602 1.15743 0.381025 1.45925 0.2233C1.69363 0.102757 1.95294 0.0304372 2.21975 0.0112C2.357 2.21655e-08 2.5055 0 2.59625 0H2.61875ZM2.048 1.5792C2 1.659 2 1.764 2 1.9775V3.6225C2 3.8353 2 3.9417 2.048 4.0215C2.08191 4.07758 2.13174 4.12385 2.192 4.1552C2.2775 4.2 2.39 4.2 2.61875 4.2H5.13125C5.35925 4.2 5.47325 4.2 5.55875 4.1552C5.61884 4.12355 5.66841 4.07705 5.702 4.0208C5.75 3.9417 5.75 3.836 5.75 3.6225V1.9775C5.75 1.7647 5.75 1.659 5.702 1.5785C5.66809 1.52242 5.61826 1.47615 5.558 1.4448C5.47325 1.4 5.36 1.4 5.13125 1.4H2.61875C2.39075 1.4 2.2775 1.4 2.19125 1.4448C2.13116 1.47645 2.08159 1.52295 2.048 1.5792ZM10.8687 7.7H13.4037C13.4945 7.7 13.6438 7.7 13.7803 7.6888C13.949 7.6748 14.237 7.6363 14.5415 7.4767C14.8433 7.31897 15.0925 7.0864 15.2615 6.8047C15.4317 6.5212 15.473 6.2524 15.488 6.0949C15.5 5.9668 15.5 5.8282 15.5 5.7435V1.9565C15.5 1.8725 15.5 1.7325 15.488 1.6051C15.4674 1.35608 15.3899 1.11405 15.2607 0.8953C15.0918 0.613602 14.8426 0.381025 14.5408 0.2233C14.3064 0.102757 14.0471 0.0304372 13.7803 0.0112C13.643 2.21655e-08 13.4945 0 13.4037 0H10.8463C10.7563 0 10.6062 2.21655e-08 10.4698 0.0112C10.301 0.0252 10.013 0.0644 9.70925 0.2233C9.40743 0.381025 9.15824 0.613602 8.98925 0.8953C8.8601 1.11405 8.78261 1.35608 8.762 1.6051C8.75 1.7332 8.75 1.8718 8.75 1.9565V5.7435C8.75 5.8282 8.75 5.9675 8.762 6.0949C8.777 6.2524 8.819 6.5212 8.98925 6.8054C9.15824 7.0871 9.40743 7.31968 9.70925 7.4774C10.013 7.6356 10.301 7.6748 10.4698 7.6888C10.607 7.7007 10.7555 7.7 10.8463 7.7H10.8687ZM10.298 6.1208C10.25 6.041 10.25 5.936 10.25 5.7225V1.9775C10.25 1.7647 10.25 1.659 10.298 1.5785C10.3319 1.52242 10.3817 1.47615 10.442 1.4448C10.5275 1.4 10.64 1.4 10.8695 1.4H13.382C13.6093 1.4 13.7232 1.4 13.808 1.4448C13.8684 1.47635 13.9182 1.52286 13.952 1.5792C14 1.659 14 1.7647 14 1.9775V5.7225C14 5.9353 14 6.041 13.952 6.1215C13.9181 6.17758 13.8683 6.22385 13.808 6.2552C13.7232 6.3 13.6092 6.3 13.3812 6.3H10.8687C10.6407 6.3 10.5275 6.3 10.4412 6.2552C10.3812 6.22355 10.3316 6.17705 10.298 6.1208ZM10.8687 14H13.4037C13.4945 14 13.6438 14 13.7803 13.9888C13.949 13.9748 14.237 13.9356 14.5415 13.7767C14.8433 13.619 15.0925 13.3864 15.2615 13.1047C15.4317 12.8212 15.473 12.5524 15.488 12.3949C15.5 12.2668 15.5 12.1282 15.5 12.0435V10.3565C15.5 10.2725 15.5 10.1325 15.488 10.0051C15.4674 9.75607 15.3899 9.51405 15.2607 9.2953C15.0918 9.0136 14.8426 8.78102 14.5408 8.6233C14.3064 8.50276 14.0471 8.43044 13.7803 8.4112C13.643 8.4 13.4945 8.4 13.4037 8.4H10.8463C10.7563 8.4 10.6062 8.4 10.4698 8.4112C10.301 8.4252 10.013 8.4644 9.70925 8.6233C9.40743 8.78102 9.15824 9.0136 8.98925 9.2953C8.8601 9.51405 8.78261 9.75607 8.762 10.0051C8.75 10.1332 8.75 10.2718 8.75 10.3565V12.0435C8.75 12.1282 8.75 12.2675 8.762 12.3949C8.777 12.5524 8.819 12.8212 8.98925 13.1054C9.15824 13.3871 9.40743 13.6197 9.70925 13.7774C10.013 13.9363 10.301 13.9748 10.4698 13.9888C10.607 14 10.7555 14 10.8463 14H10.8687ZM10.298 12.4208C10.25 12.3417 10.25 12.236 10.25 12.0225V10.3775C10.25 10.1647 10.25 10.059 10.298 9.9785C10.3319 9.92242 10.3817 9.87615 10.442 9.8448C10.5275 9.8 10.6407 9.8 10.8695 9.8H13.382C13.6093 9.8 13.7232 9.8 13.808 9.8448C13.868 9.8763 13.9183 9.9225 13.952 9.9792C14 10.059 14 10.1647 14 10.3782V12.0232C14 12.2353 14 12.3417 13.952 12.4208C13.9182 12.4771 13.8684 12.5237 13.808 12.5552C13.7232 12.6 13.6092 12.6 13.3812 12.6H10.8687C10.6407 12.6 10.5275 12.6 10.4412 12.5552C10.3812 12.5236 10.3316 12.477 10.298 12.4208Z" fill="#4094F7"/>
                        </svg>