<svg width="18" height="17" viewBox="0 0 18 17" fill="none" xmlns="http://www.w3.org/2000/svg">
                    <path d="M12.1579 6.92107L13.1266 7.75554C13.5332 8.10686 13.7369 8.28212 13.7369 8.50001C13.7369 8.71791 13.5332 8.89317 13.1266 9.24449L12.1579 10.079M5.84213 6.92107L4.87345 7.75554C4.46687 8.10686 4.26318 8.28212 4.26318 8.50001C4.26318 8.71791 4.46687 8.89317 4.87345 9.24449L5.84213 10.079M9.7895 6.13159L8.21055 10.8684" stroke="#84919A" stroke-width="1.5" stroke-linecap="round" stroke-linejoin="round"/>
                    <path d="M1.5 8.5C1.5 4.96474 1.5 3.19632 2.59816 2.09816C3.69632 1 5.46395 1 9 1C12.5353 1 14.3037 1 15.4018 2.09816C16.5 3.19632 16.5 4.96395 16.5 8.5C16.5 12.0353 16.5 13.8037 15.4018 14.9018C14.3037 16 12.5361 16 9 16C5.46474 16 3.69632 16 2.59816 14.9018C1.5 13.8037 1.5 12.0361 1.5 8.5Z" stroke="#84919A" stroke-width="1.5" stroke-linecap="round" stroke-linejoin="round"/>
                    </svg>