<svg width="18" height="14" viewBox="0 0 18 14" fill="none" xmlns="http://www.w3.org/2000/svg">
<path d="M8.99995 0C6.47495 0 4.45308 1.15 2.9812 2.51875C1.5187 3.875 0.540576 5.5 0.0780762 6.61562C-0.0250488 6.8625 -0.0250488 7.1375 0.0780762 7.38437C0.540576 8.5 1.5187 10.125 2.9812 11.4812C4.45308 12.85 6.47495 14 8.99995 14C11.525 14 13.5468 12.85 15.0187 11.4812C16.4812 10.1219 17.4593 8.5 17.9249 7.38437C18.0281 7.1375 18.0281 6.8625 17.9249 6.61562C17.4593 5.5 16.4812 3.875 15.0187 2.51875C13.5468 1.15 11.525 0 8.99995 0ZM4.49995 7C4.49995 5.80653 4.97406 4.66193 5.81797 3.81802C6.66188 2.97411 7.80648 2.5 8.99995 2.5C10.1934 2.5 11.338 2.97411 12.1819 3.81802C13.0258 4.66193 13.5 5.80653 13.5 7C13.5 8.19347 13.0258 9.33807 12.1819 10.182C11.338 11.0259 10.1934 11.5 8.99995 11.5C7.80648 11.5 6.66188 11.0259 5.81797 10.182C4.97406 9.33807 4.49995 8.19347 4.49995 7ZM8.99995 5C8.99995 6.10313 8.10308 7 6.99995 7C6.77808 7 6.56558 6.9625 6.36558 6.89687C6.1937 6.84062 5.9937 6.94688 5.99995 7.12813C6.00933 7.34375 6.04058 7.55937 6.09995 7.775C6.52808 9.375 8.17495 10.325 9.77495 9.89688C11.375 9.46875 12.325 7.82188 11.8968 6.22188C11.55 4.925 10.4031 4.05312 9.12808 4C8.94683 3.99375 8.84058 4.19062 8.89683 4.36562C8.96245 4.56562 8.99995 4.77812 8.99995 5Z" fill="black"/>
</svg>
