<svg width="14" height="14" viewBox="0 0 14 14" fill="none" xmlns="http://www.w3.org/2000/svg">
                    <path d="M12.4167 3.50001H1.58337V1.75001C1.58337 1.5953 1.64044 1.44692 1.74202 1.33753C1.84361 1.22813 1.98138 1.16667 2.12504 1.16667H11.875C12.0187 1.16667 12.1565 1.22813 12.2581 1.33753C12.3596 1.44692 12.4167 1.5953 12.4167 1.75001V3.50001Z" fill="#84919A"/>
                    <path opacity="0.5" d="M1.58337 4.66667H6.45837V8.16667H1.58337V4.66667ZM1.58337 9.33334H6.45837V12.8333H2.12504C1.98138 12.8333 1.84361 12.7719 1.74202 12.6625C1.64044 12.5531 1.58337 12.4047 1.58337 12.25V9.33334ZM7.54171 4.66667H12.4167V8.16667H7.54171V4.66667ZM11.875 12.8333H7.54171V9.33334H12.4167V12.25C12.4167 12.4047 12.3596 12.5531 12.2581 12.6625C12.1565 12.7719 12.0187 12.8333 11.875 12.8333Z" fill="#84919A"/>
                    <path opacity="0.25" d="M12.4167 4.66667V3.5H1.58337V4.66667H6.45837V8.16667H1.58337V9.33333H6.45837V12.8333H7.54171V9.33333H12.4167V8.16667H7.54171V4.66667H12.4167Z" fill="#84919A"/>
                    </svg>