<svg width="14" height="14" viewBox="0 0 14 14" fill="none" xmlns="http://www.w3.org/2000/svg">
<path d="M2 0C0.896875 0 0 0.896875 0 2V12C0 13.1031 0.896875 14 2 14H12C13.1031 14 14 13.1031 14 12V4.41563C14 3.88438 13.7906 3.375 13.4156 3L11 0.584375C10.625 0.209375 10.1156 0 9.58438 0H2ZM2 3C2 2.44687 2.44687 2 3 2H9C9.55313 2 10 2.44687 10 3V5C10 5.55313 9.55313 6 9 6H3C2.44687 6 2 5.55313 2 5V3ZM7 8C7.53043 8 8.03914 8.21071 8.41421 8.58579C8.78929 8.96086 9 9.46957 9 10C9 10.5304 8.78929 11.0391 8.41421 11.4142C8.03914 11.7893 7.53043 12 7 12C6.46957 12 5.96086 11.7893 5.58579 11.4142C5.21071 11.0391 5 10.5304 5 10C5 9.46957 5.21071 8.96086 5.58579 8.58579C5.96086 8.21071 6.46957 8 7 8Z" fill="#494949"/>
</svg>
